<?xml version="1.0" encoding="utf-8"?>
<!-- Generator: Adobe Illustrator 16.0.0, SVG Export Plug-In . SVG Version: 6.00 Build 0)  -->
<!DOCTYPE svg PUBLIC "-//W3C//DTD SVG 1.1//EN" "http://www.w3.org/Graphics/SVG/1.1/DTD/svg11.dtd">
<svg version="1.1" id="Слой_1" xmlns="http://www.w3.org/2000/svg" xmlns:xlink="http://www.w3.org/1999/xlink" x="0px" y="0px"
	 width="283.463px" height="283.464px" viewBox="156.79 279.584 283.463 283.464"
	 enable-background="new 156.79 279.584 283.463 283.464" xml:space="preserve">
<g>
	<g>
		<path fill="#54284E" d="M440.253,421.313c0,78.278-63.455,141.735-141.73,141.735c-78.277,0-141.733-63.457-141.733-141.735
			c0-78.275,63.456-141.729,141.733-141.729C376.798,279.585,440.253,343.038,440.253,421.313z"/>
		<path fill="#FFFFFF" d="M413.962,503.562c-0.453,0.633-0.881,1.219-1.922,2.355c-0.887,0.977-3.119,2.121-5.299,1.961
			c-1.795-0.133-4.051-1.352-5.459-2.82c-1.285-1.336-2.574-2.723-3.396-3.617c2.377-3.801,4.127-6.008,6.326-9.414
			c1.996-3.074,3.539-5.883,4.973-8.59c0.152-0.289,0.314-0.91,0.314-0.91c0.082-0.344,0.131-0.699,0.131-1.07
			c0-2.508-2.039-4.547-4.551-4.547c-1.223,0-2.328,0.48-3.146,1.266c-0.316,0.307-0.58,0.609-0.842,1.027
			c-0.25,0.398-0.348,0.563-0.504,0.844c-2.852,5.133-5.795,10.189-9.109,14.75l-19.232-19.586c2.211-1.188,4.313-2.531,6.293-4.033
			c1.979-1.504,3.738-3.168,5.281-4.984c1.543-1.82,2.77-3.836,3.684-6.057c0.906-2.215,1.357-4.707,1.357-7.477
			c0-2.453-0.436-4.789-1.305-7c-0.873-2.215-2.16-4.117-3.854-5.703c-1.705-1.582-3.799-2.844-6.295-3.793
			c-2.49-0.953-5.322-1.428-8.488-1.428c-3.086,0-5.916,0.475-8.492,1.428c-2.563,0.949-4.785,2.293-6.645,4.035
			c-1.855,1.734-3.324,3.875-4.393,6.41c-1.061,2.531-1.607,5.379-1.607,8.543c0,6.25,2.93,12.305,8.793,18.156
			c-2.297,1.109-4.514,2.398-6.652,3.863c-2.141,1.461-4.016,3.16-5.637,5.102c-1.625,1.938-2.91,4.113-3.852,6.531
			c-0.953,2.414-1.434,5.16-1.434,8.242c0,2.457,0.438,5.031,1.309,7.719c0.871,2.691,2.352,5.164,4.445,7.418
			c2.1,2.254,4.855,4.113,8.25,5.574c3.406,1.465,7.684,2.199,12.828,2.199c4.711,0,8.959-0.734,12.75-2.191
			c0.67-0.254,1.328-0.531,1.969-0.836c3.861-1.82,7.297-4.152,10.316-6.977c0.324-0.301,0.645-0.604,0.961-0.918
			c1.189,1.324,2.348,2.641,3.465,3.961c-0.004,0.004-0.008,0.008-0.012,0.012c1.293,1.602,2.563,3.969,2.563,6.195
			c0,1.754-0.414,3.266-1.555,4.574c-0.91,1.047-1.805,1.84-2.652,2.611c0.252-0.211,2.668-1.961,4.086-3.158
			c6.258-5.273,9.457-9.152,14.078-16.096C412.634,505.89,413.89,503.671,413.962,503.562z M360.9,446.546
			c1.859-2.094,4.531-3.148,8.016-3.148c3.082,0,5.516,0.934,7.297,2.793c1.783,1.859,2.676,4.133,2.676,6.824
			c0,2.059-0.338,3.898-1.008,5.52c-0.676,1.621-1.586,3.109-2.734,4.449c-1.146,1.348-2.49,2.533-4.029,3.564
			c-1.551,1.027-3.189,1.979-4.932,2.846c-5.387-4.906-8.072-9.926-8.072-15.074C358.111,451.234,359.037,448.644,360.9,446.546z
			 M376.814,508.679c-3.289,1.426-6.871,2.141-10.752,2.141c-3.008,0-5.518-0.457-7.533-1.363c-2.018-0.914-3.66-2.059-4.922-3.445
			c-1.277-1.387-2.186-2.91-2.736-4.568c-0.557-1.664-0.836-3.203-0.836-4.631c0-2.529,0.377-4.744,1.135-6.645
			c0.754-1.898,1.719-3.543,2.91-4.926c1.186-1.383,2.508-2.555,3.975-3.5c1.461-0.953,2.91-1.785,4.33-2.5l23.148,23.387
			C383.001,505.242,380.091,507.257,376.814,508.679z"/>
	</g>
	<g>
		<g>
			<path fill="#FFFFFF" d="M207.499,377.383c0,2.018-0.3,3.797-0.9,5.338s-1.418,2.828-2.446,3.859
				c-1.034,1.031-2.24,1.807-3.622,2.328c-1.385,0.521-2.857,0.783-4.421,0.783c-1.563,0-3.043-0.262-4.436-0.783
				c-1.395-0.521-2.608-1.297-3.639-2.328c-1.031-1.031-1.854-2.318-2.466-3.859c-0.612-1.541-0.917-3.32-0.917-5.338
				c0-2.018,0.306-3.793,0.917-5.322c0.611-1.529,1.445-2.814,2.501-3.857c1.053-1.043,2.271-1.825,3.653-2.347
				c1.382-0.522,2.845-0.782,4.386-0.782c1.54,0,3.003,0.261,4.386,0.782c1.381,0.521,2.59,1.304,3.621,2.347
				c1.031,1.043,1.852,2.328,2.465,3.857C207.193,373.59,207.499,375.365,207.499,377.383z M189.105,377.383
				c0,1.291,0.16,2.465,0.477,3.518c0.316,1.055,0.776,1.951,1.377,2.688c0.602,0.736,1.332,1.309,2.193,1.717
				c0.861,0.408,1.836,0.611,2.924,0.611c1.066,0,2.025-0.203,2.888-0.611c0.863-0.408,1.594-0.98,2.193-1.717
				c0.602-0.736,1.061-1.633,1.377-2.688c0.316-1.053,0.477-2.227,0.477-3.518c0-1.293-0.16-2.467-0.477-3.52
				c-0.316-1.055-0.775-1.95-1.377-2.687c-0.6-0.735-1.33-1.31-2.193-1.718c-0.862-0.406-1.821-0.61-2.888-0.61
				c-1.088,0-2.063,0.204-2.924,0.61c-0.861,0.408-1.592,0.986-2.193,1.734c-0.601,0.749-1.061,1.645-1.377,2.686
				C189.266,374.922,189.105,376.09,189.105,377.383z"/>
			<path fill="#FFFFFF" d="M217.257,374.797c-0.023,0.998-0.058,2.035-0.101,3.111c-0.045,1.078-0.153,2.137-0.324,3.18
				c-0.168,1.043-0.436,2.041-0.8,2.992c-0.361,0.953-0.864,1.809-1.511,2.568c-0.647,0.758-1.451,1.393-2.414,1.904
				c-0.963,0.51-2.137,0.832-3.52,0.969l-0.579-3.436c1.156-0.225,2.052-0.594,2.687-1.104c0.635-0.51,1.123-1.162,1.463-1.955
				c0.271-0.59,0.48-1.26,0.629-2.008c0.146-0.748,0.259-1.535,0.34-2.363c0.08-0.826,0.129-1.672,0.152-2.531
				c0.023-0.863,0.034-1.701,0.034-2.518v-2.209h12.578v17.781h-4.113v-14.383h-4.521V374.797z"/>
			<path fill="#FFFFFF" d="M234.393,377.959c0.34-0.09,0.838-0.17,1.496-0.238c0.656-0.066,1.313-0.102,1.972-0.102
				c1.018,0,1.975,0.113,2.873,0.34c0.895,0.227,1.672,0.584,2.326,1.072c0.658,0.488,1.18,1.111,1.565,1.869
				c0.384,0.76,0.577,1.662,0.577,2.705c0,1.064-0.18,1.971-0.543,2.719c-0.363,0.748-0.885,1.359-1.564,1.836
				c-0.682,0.477-1.49,0.828-2.43,1.055c-0.942,0.227-1.989,0.34-3.146,0.34c-1.337,0-2.584-0.068-3.737-0.203
				c-1.158-0.137-2.324-0.342-3.503-0.613v-17.34h4.114V377.959L234.393,377.959z M237.417,386.324c1.155,0,2.059-0.221,2.703-0.662
				c0.646-0.443,0.969-1.15,0.969-2.127c0-0.496-0.107-0.916-0.322-1.258c-0.217-0.34-0.5-0.617-0.85-0.832
				c-0.352-0.217-0.766-0.369-1.241-0.459c-0.479-0.092-0.974-0.137-1.497-0.137c-0.476,0-0.974,0.018-1.495,0.051
				c-0.521,0.033-0.951,0.098-1.291,0.188v5.066c0.295,0.047,0.729,0.086,1.308,0.119
				C236.279,386.307,236.852,386.324,237.417,386.324z"/>
			<path fill="#FFFFFF" d="M248.095,371.398h4.113v14.416h5.576v-14.416h4.113v14.416h5.574v-14.416h4.114v17.781h-23.491
				L248.095,371.398L248.095,371.398z"/>
			<path fill="#FFFFFF" d="M281.886,370.957c1.361,0,2.506,0.17,3.434,0.51c0.932,0.339,1.672,0.816,2.229,1.426
				c0.555,0.613,0.953,1.355,1.191,2.229c0.236,0.871,0.355,1.83,0.355,2.873v10.777c-0.637,0.137-1.594,0.303-2.873,0.494
				c-1.281,0.191-2.726,0.289-4.336,0.289c-1.065,0-2.04-0.102-2.924-0.307c-0.883-0.203-1.637-0.531-2.258-0.984
				c-0.624-0.455-1.111-1.043-1.463-1.77c-0.354-0.725-0.529-1.619-0.529-2.686c0-1.02,0.201-1.881,0.596-2.584
				c0.396-0.703,0.936-1.275,1.615-1.719c0.68-0.441,1.467-0.76,2.363-0.951c0.894-0.191,1.83-0.289,2.803-0.289
				c0.455,0,0.93,0.027,1.43,0.084c0.498,0.057,1.031,0.152,1.6,0.291v-0.682c0-0.475-0.059-0.93-0.172-1.359
				c-0.113-0.432-0.311-0.811-0.594-1.139c-0.285-0.328-0.658-0.584-1.123-0.766c-0.464-0.182-1.049-0.271-1.751-0.271
				c-0.952,0-1.825,0.066-2.619,0.203c-0.793,0.137-1.437,0.295-1.937,0.477l-0.509-3.331c0.521-0.182,1.277-0.362,2.278-0.545
				C279.688,371.047,280.752,370.957,281.886,370.957z M282.228,386.289c1.269,0,2.232-0.066,2.891-0.203v-4.557
				c-0.227-0.066-0.557-0.135-0.989-0.203c-0.429-0.068-0.906-0.102-1.427-0.102c-0.453,0-0.91,0.033-1.377,0.102
				c-0.465,0.068-0.885,0.193-1.256,0.373c-0.377,0.182-0.676,0.438-0.902,0.768c-0.227,0.328-0.34,0.742-0.34,1.238
				c0,0.977,0.305,1.65,0.917,2.025C280.355,386.104,281.185,386.289,282.228,386.289z"/>
			<path fill="#FFFFFF" d="M308.201,389.18h-4.113v-7.445h-6.698v7.445h-4.112v-17.781h4.112v6.936h6.698v-6.936h4.113V389.18z"/>
			<path fill="#FFFFFF" d="M311.601,380.307c0-1.314,0.203-2.545,0.611-3.689c0.41-1.145,0.992-2.137,1.754-2.975
				c0.758-0.84,1.68-1.497,2.771-1.972c1.086-0.478,2.309-0.714,3.668-0.714c1.68,0,3.266,0.306,4.762,0.917l-0.883,3.366
				c-0.479-0.205-1.018-0.375-1.617-0.512c-0.6-0.135-1.24-0.203-1.918-0.203c-1.613,0-2.836,0.506-3.672,1.512
				c-0.838,1.01-1.258,2.432-1.258,4.27c0,1.768,0.395,3.168,1.188,4.199c0.795,1.031,2.129,1.547,4.014,1.547
				c0.701,0,1.393-0.068,2.072-0.203c0.684-0.137,1.271-0.307,1.768-0.51l0.578,3.398c-0.455,0.227-1.139,0.432-2.057,0.613
				c-0.916,0.18-1.865,0.271-2.84,0.271c-1.518,0-2.838-0.232-3.957-0.697c-1.123-0.463-2.053-1.109-2.789-1.938
				c-0.738-0.828-1.285-1.814-1.65-2.959C311.783,382.885,311.601,381.645,311.601,380.307z"/>
			<path fill="#FFFFFF" d="M331.896,378.537c0.523-0.52,1.09-1.104,1.703-1.75c0.609-0.646,1.217-1.297,1.816-1.957
				c0.602-0.656,1.176-1.285,1.719-1.887c0.543-0.6,0.996-1.114,1.359-1.545h4.826c-0.498,0.589-1.068,1.234-1.717,1.938
				c-0.646,0.703-1.314,1.422-2.008,2.158c-0.688,0.736-1.371,1.451-2.039,2.143c-0.666,0.691-1.273,1.309-1.816,1.854
				c0.701,0.588,1.434,1.273,2.191,2.055c0.76,0.785,1.508,1.613,2.244,2.484c0.738,0.875,1.42,1.758,2.061,2.652
				c0.631,0.896,1.166,1.729,1.594,2.498h-4.758c-0.434-0.68-0.939-1.393-1.516-2.141c-0.574-0.75-1.186-1.48-1.816-2.193
				c-0.639-0.715-1.281-1.389-1.939-2.023c-0.658-0.635-1.293-1.178-1.906-1.633v7.99h-4.111v-17.781h4.111v7.138H331.896z"/>
			<path fill="#FFFFFF" d="M361.546,371.398v17.781h-4.082c0-1.291,0.006-2.57,0.02-3.84c0.012-1.27,0.02-2.449,0.031-3.537
				c0.014-1.088,0.021-2.035,0.033-2.84c0.012-0.805,0.02-1.4,0.02-1.785c-0.682,0.883-1.383,1.859-2.107,2.924
				c-0.727,1.066-1.445,2.131-2.158,3.197c-0.715,1.064-1.389,2.107-2.025,3.129c-0.629,1.02-1.188,1.938-1.664,2.752h-3.637
				v-17.781h4.047c0,1.314-0.008,2.566-0.018,3.756c-0.014,1.191-0.018,2.273-0.018,3.248c0,0.973-0.01,1.824-0.021,2.549
				c-0.008,0.727-0.016,1.281-0.016,1.668c0.635-0.975,1.293-1.979,1.973-3.01c0.68-1.031,1.363-2.041,2.059-3.027
				c0.689-0.986,1.377-1.922,2.057-2.805c0.68-0.885,1.338-1.677,1.973-2.379H361.546L361.546,371.398z"/>
			<path fill="#FFFFFF" d="M381.501,371.398v17.781h-4.08c0-1.291,0.006-2.57,0.02-3.84c0.01-1.27,0.02-2.449,0.033-3.537
				c0.01-1.088,0.021-2.035,0.033-2.84c0.01-0.805,0.02-1.4,0.02-1.785c-0.682,0.883-1.387,1.859-2.107,2.924
				c-0.727,1.066-1.443,2.131-2.158,3.197c-0.715,1.064-1.391,2.107-2.023,3.129c-0.637,1.02-1.191,1.938-1.668,2.752h-3.639
				v-17.781h4.045c0,1.314-0.004,2.566-0.016,3.756c-0.01,1.191-0.02,2.273-0.02,3.248c0,0.973,0,1.824-0.018,2.549
				c-0.01,0.727-0.016,1.281-0.016,1.668c0.635-0.975,1.293-1.979,1.973-3.01c0.682-1.031,1.365-2.041,2.059-3.027
				c0.688-0.986,1.377-1.922,2.057-2.805c0.68-0.885,1.338-1.677,1.973-2.379H381.501L381.501,371.398z M373.716,368.747
				c-0.727,0-1.396-0.103-2.021-0.307c-0.623-0.204-1.186-0.498-1.686-0.884c-0.496-0.385-0.906-0.855-1.223-1.411
				c-0.316-0.554-0.51-1.184-0.578-1.887l2.961-0.782c0.383,1.609,1.23,2.415,2.547,2.415c1.338,0,2.189-0.794,2.551-2.381
				l2.924,0.782c-0.092,0.702-0.289,1.332-0.596,1.887c-0.305,0.556-0.703,1.02-1.188,1.394c-0.486,0.374-1.049,0.663-1.688,0.867
				C375.087,368.645,374.417,368.747,373.716,368.747z"/>
			<path fill="#FFFFFF" d="M203.221,397.436v23.851h-2.341v-21.819h-12.698v21.819h-2.341v-23.851H203.221z"/>
			<path fill="#FFFFFF" d="M214.511,403.082c1.169,0,2.163,0.166,2.978,0.498c0.812,0.334,1.472,0.793,1.979,1.377
				c0.503,0.585,0.873,1.278,1.101,2.081c0.228,0.803,0.344,1.676,0.344,2.615v11.219c-0.229,0.07-0.563,0.145-0.999,0.227
				s-0.94,0.166-1.514,0.258c-0.574,0.092-1.208,0.166-1.909,0.223c-0.701,0.057-1.417,0.088-2.15,0.088
				c-0.941,0-1.808-0.104-2.601-0.311c-0.789-0.207-1.478-0.533-2.063-0.98c-0.586-0.449-1.044-1.021-1.377-1.723
				c-0.331-0.699-0.5-1.553-0.5-2.564c0-0.963,0.184-1.789,0.552-2.477c0.365-0.689,0.885-1.256,1.549-1.705
				c0.666-0.445,1.456-0.773,2.376-0.98c0.917-0.207,1.913-0.309,2.994-0.309c0.321,0,0.657,0.018,1.016,0.051
				c0.354,0.035,0.697,0.08,1.032,0.139c0.331,0.057,0.617,0.115,0.858,0.172c0.242,0.057,0.407,0.109,0.498,0.154v-1.102
				c0-0.619-0.045-1.221-0.137-1.807c-0.092-0.586-0.291-1.111-0.603-1.582c-0.31-0.469-0.743-0.85-1.306-1.137
				c-0.563-0.286-1.302-0.429-2.22-0.429c-1.308,0-2.285,0.092-2.928,0.274c-0.642,0.184-1.112,0.332-1.41,0.445l-0.31-1.96
				c0.389-0.182,0.991-0.354,1.809-0.516C212.382,403.162,213.361,403.082,214.511,403.082z M214.716,419.669
				c0.874,0,1.638-0.027,2.289-0.086c0.654-0.057,1.211-0.133,1.668-0.223v-6.264c-0.252-0.115-0.652-0.236-1.202-0.363
				c-0.55-0.125-1.307-0.188-2.271-0.188c-0.553,0-1.126,0.039-1.72,0.119c-0.598,0.082-1.15,0.252-1.653,0.516
				c-0.505,0.264-0.919,0.627-1.237,1.086c-0.322,0.459-0.483,1.066-0.483,1.822c0,0.666,0.109,1.229,0.326,1.688
				c0.219,0.459,0.527,0.826,0.931,1.102c0.4,0.275,0.883,0.477,1.443,0.604C213.37,419.608,214.005,419.669,214.716,419.669z"/>
			<path fill="#FFFFFF" d="M228.687,427.656h-2.235v-23.541c0.665-0.23,1.515-0.449,2.546-0.654
				c1.035-0.205,2.343-0.311,3.925-0.311c1.309,0,2.494,0.213,3.562,0.637c1.068,0.424,1.984,1.039,2.753,1.841
				c0.767,0.803,1.364,1.779,1.787,2.926c0.426,1.146,0.637,2.441,0.637,3.889c0,1.355-0.176,2.598-0.531,3.734
				c-0.356,1.135-0.878,2.111-1.566,2.926c-0.688,0.813-1.532,1.449-2.528,1.908c-1,0.459-2.141,0.69-3.424,0.69
				c-1.173,0-2.184-0.168-3.046-0.5c-0.86-0.33-1.485-0.648-1.878-0.945v7.401H228.687z M228.687,418.087
				c0.207,0.16,0.465,0.332,0.774,0.516c0.312,0.184,0.672,0.355,1.085,0.518c0.413,0.16,0.862,0.291,1.342,0.395
				c0.481,0.104,0.986,0.154,1.515,0.154c1.102,0,2.024-0.188,2.771-0.566c0.744-0.379,1.348-0.896,1.807-1.549
				c0.457-0.654,0.789-1.422,0.996-2.309c0.209-0.881,0.312-1.816,0.312-2.803c0-2.342-0.586-4.135-1.755-5.389
				c-1.17-1.248-2.72-1.872-4.646-1.872c-1.102,0-1.989,0.052-2.668,0.153c-0.676,0.104-1.188,0.213-1.532,0.326L228.687,418.087
				L228.687,418.087z"/>
			<path fill="#FFFFFF" d="M257.804,403.494v1.894h-5.852v15.898h-2.237v-15.898h-5.817v-1.894H257.804z"/>
			<path fill="#FFFFFF" d="M275.25,421.286h-2.237v-8.293h-9.67v8.293h-2.236v-17.792h2.236v7.606h9.67v-7.606h2.237V421.286z"/>
			<path fill="#FFFFFF" d="M279.933,412.374c0-1.563,0.221-2.92,0.668-4.078c0.447-1.16,1.033-2.129,1.756-2.908
				c0.723-0.78,1.549-1.36,2.479-1.737c0.93-0.379,1.888-0.568,2.874-0.568c2.18,0,3.916,0.711,5.212,2.133
				c1.3,1.423,1.948,3.614,1.948,6.573c0,0.184-0.009,0.367-0.018,0.549c-0.013,0.186-0.03,0.359-0.052,0.518h-12.496
				c0.069,2.18,0.609,3.855,1.619,5.023c1.01,1.172,2.613,1.758,4.815,1.758c1.22,0,2.183-0.117,2.893-0.344
				c0.711-0.23,1.23-0.426,1.549-0.586l0.415,1.926c-0.323,0.186-0.926,0.402-1.807,0.654c-0.884,0.253-1.923,0.38-3.116,0.38
				c-1.56,0-2.892-0.231-3.991-0.688c-1.102-0.461-2.01-1.102-2.719-1.928c-0.713-0.826-1.229-1.807-1.551-2.941
				C280.091,414.97,279.933,413.726,279.933,412.374z M292.561,410.962c-0.046-1.857-0.479-3.305-1.307-4.336
				c-0.826-1.033-1.996-1.548-3.512-1.548c-0.802,0-1.521,0.159-2.151,0.481c-0.629,0.32-1.18,0.752-1.652,1.289
				c-0.471,0.539-0.837,1.166-1.098,1.877c-0.264,0.711-0.422,1.457-0.468,2.236L292.561,410.962L292.561,410.962z"/>
			<path fill="#FFFFFF" d="M301.919,427.656h-2.236v-23.541c0.664-0.23,1.516-0.449,2.549-0.654c1.031-0.205,2.34-0.311,3.924-0.311
				c1.307,0,2.494,0.213,3.563,0.637c1.066,0.424,1.982,1.039,2.75,1.841c0.77,0.803,1.365,1.779,1.789,2.926
				c0.426,1.146,0.641,2.441,0.641,3.889c0,1.355-0.182,2.598-0.535,3.734c-0.355,1.135-0.877,2.111-1.564,2.926
				c-0.689,0.813-1.533,1.449-2.529,1.908c-1,0.459-2.141,0.69-3.424,0.69c-1.172,0-2.186-0.168-3.047-0.5
				c-0.861-0.33-1.486-0.648-1.877-0.945v7.401H301.919z M301.919,418.087c0.209,0.16,0.467,0.332,0.775,0.516
				c0.311,0.184,0.67,0.355,1.086,0.518c0.41,0.16,0.859,0.291,1.34,0.395s0.986,0.154,1.514,0.154c1.104,0,2.027-0.188,2.771-0.566
				s1.348-0.896,1.807-1.549c0.459-0.654,0.791-1.422,0.998-2.309c0.207-0.881,0.313-1.816,0.313-2.803
				c0-2.342-0.586-4.135-1.756-5.389c-1.17-1.248-2.721-1.872-4.645-1.872c-1.105,0-1.99,0.052-2.67,0.153
				c-0.676,0.104-1.189,0.213-1.531,0.326v12.426H301.919z"/>
			<path fill="#FFFFFF" d="M318.796,403.494h2.236v7.124c0.412-0.115,1.023-0.234,1.824-0.361c0.805-0.125,1.605-0.189,2.41-0.189
				c0.895,0,1.758,0.104,2.598,0.311c0.836,0.205,1.57,0.539,2.201,0.998c0.631,0.457,1.137,1.055,1.514,1.789
				c0.379,0.734,0.568,1.631,0.568,2.686s-0.189,1.949-0.568,2.682c-0.377,0.736-0.887,1.34-1.527,1.809
				c-0.645,0.469-1.406,0.809-2.291,1.016c-0.885,0.205-1.816,0.311-2.803,0.311c-0.598,0-1.203-0.024-1.809-0.069
				c-0.609-0.048-1.184-0.104-1.723-0.172c-0.537-0.068-1.039-0.15-1.492-0.24c-0.463-0.094-0.84-0.195-1.139-0.313V403.494
				L318.796,403.494z M324.958,419.669c1.441,0,2.617-0.297,3.527-0.895c0.902-0.596,1.359-1.572,1.359-2.924
				c0-0.643-0.129-1.207-0.379-1.688c-0.254-0.482-0.59-0.877-1.016-1.188s-0.918-0.539-1.48-0.689
				c-0.563-0.148-1.152-0.223-1.773-0.223c-0.711,0-1.434,0.035-2.168,0.104c-0.734,0.07-1.398,0.207-1.996,0.412v6.746
				c0.299,0.07,0.814,0.145,1.551,0.225C323.314,419.63,324.107,419.669,324.958,419.669z M338.138,421.286H335.9v-17.792h2.238
				V421.286L338.138,421.286z"/>
		</g>
	</g>
</g>
</svg>
